<svg width="256" height="256" viewBox="0 0 128 128" xmlns="http://www.w3.org/2000/svg"><g stroke="#13564E" stroke-width="6" stroke-linecap="round" fill="none"><path d="M50 50 C44 42 56 38 50 29 C45 22 54 18 50 11"></path><path d="M72 50 C66 42 78 38 72 29 C67 22 76 18 72 11"></path></g><path d="M22 60 C22 90 40 110 64 110 C88 110 106 90 106 60 Z" fill="#13564E"></path><ellipse cx="64" cy="60" rx="42" ry="9" fill="#13564E"></ellipse><ellipse cx="64" cy="59" rx="34" ry="5.5" fill="#FBF6EA"></ellipse><g transform="translate(40 58) rotate(-16)"><path d="M0 0 C2.5 -7.5 11 -7.5 15 0 C11 7.5 2.5 7.5 0 0 Z" fill="#13564E"></path><path d="M3 0 L13 0" stroke="#FBF6EA" stroke-width="1.6" stroke-linecap="round"></path></g></svg>